# xmcd
#
# Track frame offsets: 
#        150
#        12830
#        23444
#        36758
#        51009
#        63325
#        76657
#        87239
#        100029
#        112109
#        122349
#        133604
#        145840
#        158017
#        170425
#        182158
#        196273
#        209456
#        224139
#        239828
#
# Disc length: 3376 seconds
#
# Revision: 0
# Processed by: cddbd v1.5.2PL0 Copyright (c) Steve Scherf et al.
# Submitted via: ExactAudioCopyFreeDBPlugin 1.0
#
DISCID=0f0d2e14
DTITLE=Lynn Anderson - Definitive Collection CD 2
DYEAR=1900
DGENRE=Country
TTITLE0=How Can I Unlove You
TTITLE1=Fool Me
TTITLE2=Keep Me In Mind
TTITLE3=Cry
TTITLE4=Listen To A Country Song
TTITLE5=Top Of The World
TTITLE6=Sing About Love
TTITLE7=Smile For Me
TTITLE8=Talkin' To The Wall
TTITLE9=What A Man My Man Is
TTITLE10=He Turns It Into Love Again
TTITLE11=I've Never Loved Anyone More
TTITLE12=Paradise
TTITLE13=All The King's Horses
TTITLE14=Wrap Your Love All Around Your Man
TTITLE15=He Ain't You
TTITLE16=Isn't It Always Love
TTITLE17=I Love How You Love Me
TTITLE18=Sea Of Heartbreak
TTITLE19=Even Cowgirls Get The Blues
EXTD=
EXTT0=
EXTT1=
EXTT2=
EXTT3=
EXTT4=
EXTT5=
EXTT6=
EXTT7=
EXTT8=
EXTT9=
EXTT10=
EXTT11=
EXTT12=
EXTT13=
EXTT14=
EXTT15=
EXTT16=
EXTT17=
EXTT18=
EXTT19=
PLAYORDER=
